<svg width="58" height="43" viewBox="0 0 58 43" fill="none" xmlns="http://www.w3.org/2000/svg">
<path d="M49.0753 3.57345C45.4019 1.90763 41.4246 0.698569 37.2817 0C37.2088 0.00100945 37.1393 0.0299815 37.0883 0.0806047C36.5912 0.96725 36.0112 2.12258 35.6245 3.00922C31.2301 2.36479 26.7613 2.36479 22.367 3.00922C21.9803 2.09571 21.4003 0.96725 20.8755 0.0806047C20.8479 0.0268686 20.765 0 20.6822 0C16.5392 0.698569 12.5896 1.90763 8.88851 3.57345C8.86089 3.57345 8.83327 3.60032 8.80565 3.62719C1.29306 14.5625 -0.778425 25.2022 0.243508 35.7345C0.243508 35.7882 0.271127 35.842 0.326367 35.8688C5.29793 39.4154 10.0762 41.5649 14.7991 42.9889C14.882 43.0157 14.9649 42.9889 14.9925 42.9351C16.0973 41.4574 17.0916 39.899 17.9478 38.2601C18.003 38.1526 17.9478 38.0451 17.8373 38.0183C16.263 37.4272 14.7715 36.7286 13.3077 35.9226C13.1972 35.8688 13.1972 35.7076 13.2801 35.627C13.5839 35.4121 13.8877 35.1703 14.1915 34.9553C14.2467 34.9016 14.3296 34.9016 14.3848 34.9285C23.8861 39.1467 34.133 39.1467 43.5237 34.9285C43.579 34.9016 43.6618 34.9016 43.7171 34.9553C44.0209 35.1971 44.3247 35.4121 44.6285 35.6539C44.739 35.7345 44.739 35.8957 44.6009 35.9494C43.1647 36.7823 41.6456 37.4541 40.0713 38.0451C39.9608 38.072 39.9332 38.2064 39.9608 38.287C40.8446 39.9259 41.8389 41.4843 42.9161 42.962C42.999 42.9889 43.0818 43.0157 43.1647 42.9889C47.9153 41.5649 52.6935 39.4154 57.6651 35.8688C57.7203 35.842 57.7479 35.7882 57.7479 35.7345C58.9632 23.5633 55.7317 13.0041 49.1858 3.62719C49.1582 3.60032 49.1306 3.57345 49.0753 3.57345ZM19.384 29.313C16.5392 29.313 14.1639 26.7606 14.1639 23.617C14.1639 20.4734 16.484 17.921 19.384 17.921C22.3117 17.921 24.6318 20.5003 24.6042 23.617C24.6042 26.7606 22.2841 29.313 19.384 29.313ZM38.635 29.313C35.7902 29.313 33.4149 26.7606 33.4149 23.617C33.4149 20.4734 35.735 17.921 38.635 17.921C41.5627 17.921 43.8828 20.5003 43.8552 23.617C43.8552 26.7606 41.5627 29.313 38.635 29.313Z" fill="white" fill-opacity="0.9"/>
</svg>
