<?xml version="1.0" encoding="UTF-8"?>
<svg id="Layer_1" xmlns="http://www.w3.org/2000/svg" version="1.1" viewBox="0 0 5970.03 5970.03">
  <!-- Generator: Adobe Illustrator 29.4.0, SVG Export Plug-In . SVG Version: 2.1.0 Build 152)  -->
  <defs>
    <style>
      .st0 {
        opacity: .15;
      }

      .st0, .st1 {
        fill: #fff;
      }
    </style>
  </defs>
  <path class="st0" d="M1233.85,1035.01c-11.19-8.39-23.43-14.04-35.13-21.18-134.23-109.45-305.48-175.25-492.19-175.25-271.1,0-490.87,219.77-490.87,490.87v694.62l1270.49,890.57h0l13.95-1680.1-266.25-199.53Z"/>
  <path class="st1" d="M215.65,4717.44c0,228.58,185.3,413.88,413.87,413.88h856.62v-2216.67L215.65,2024.07v2693.36Z"/>
  <polygon class="st1" points="3038.98 2387.78 1500.09 1234.54 1486.14 2914.64 3047.8 4084.94 3052.39 4091.06 3054.18 4089.72 3055.96 4091.06 3060.55 4084.94 4623.88 2913.38 4592.6 1223.49 3038.98 2387.78"/>
  <path class="st0" d="M5894.38,1329.45c0-271.1-219.77-490.87-490.87-490.87-154.31,0-297.75,45.42-418.81,122.76-44.95,14.62-88.73,34.81-128.65,64.73l-263.44,197.42,31.28,1689.9h0l1270.5-910.24v-673.7Z"/>
  <path class="st1" d="M4623.88,2913.38v2217.93h856.62c228.58,0,413.88-185.3,413.88-413.88V2003.14l-1270.5,910.24Z"/>
</svg>