<svg width="51" height="51" viewBox="0 0 51 51" fill="none" xmlns="http://www.w3.org/2000/svg">
<path d="M14.79 0H36.21C44.37 0 51 6.63 51 14.79V36.21C51 40.1326 49.4418 43.8944 46.6681 46.6681C43.8944 49.4418 40.1326 51 36.21 51H14.79C6.63 51 0 44.37 0 36.21V14.79C0 10.8674 1.55823 7.10555 4.33189 4.33189C7.10555 1.55823 10.8674 0 14.79 0ZM14.28 5.1C11.8453 5.1 9.51034 6.06718 7.78876 7.78876C6.06718 9.51034 5.1 11.8453 5.1 14.28V36.72C5.1 41.7945 9.2055 45.9 14.28 45.9H36.72C39.1547 45.9 41.4897 44.9328 43.2112 43.2112C44.9328 41.4897 45.9 39.1547 45.9 36.72V14.28C45.9 9.2055 41.7945 5.1 36.72 5.1H14.28ZM38.8875 8.925C39.7329 8.925 40.5436 9.26082 41.1414 9.8586C41.7392 10.4564 42.075 11.2671 42.075 12.1125C42.075 12.9579 41.7392 13.7686 41.1414 14.3664C40.5436 14.9642 39.7329 15.3 38.8875 15.3C38.0421 15.3 37.2314 14.9642 36.6336 14.3664C36.0358 13.7686 35.7 12.9579 35.7 12.1125C35.7 11.2671 36.0358 10.4564 36.6336 9.8586C37.2314 9.26082 38.0421 8.925 38.8875 8.925ZM25.5 12.75C28.8815 12.75 32.1245 14.0933 34.5156 16.4844C36.9067 18.8755 38.25 22.1185 38.25 25.5C38.25 28.8815 36.9067 32.1245 34.5156 34.5156C32.1245 36.9067 28.8815 38.25 25.5 38.25C22.1185 38.25 18.8755 36.9067 16.4844 34.5156C14.0933 32.1245 12.75 28.8815 12.75 25.5C12.75 22.1185 14.0933 18.8755 16.4844 16.4844C18.8755 14.0933 22.1185 12.75 25.5 12.75ZM25.5 17.85C23.4711 17.85 21.5253 18.656 20.0906 20.0906C18.656 21.5253 17.85 23.4711 17.85 25.5C17.85 27.5289 18.656 29.4747 20.0906 30.9094C21.5253 32.344 23.4711 33.15 25.5 33.15C27.5289 33.15 29.4747 32.344 30.9094 30.9094C32.344 29.4747 33.15 27.5289 33.15 25.5C33.15 23.4711 32.344 21.5253 30.9094 20.0906C29.4747 18.656 27.5289 17.85 25.5 17.85Z" fill="white" fill-opacity="0.9"/>
</svg>
