<svg width="49" height="50" viewBox="0 0 49 50" fill="none" xmlns="http://www.w3.org/2000/svg">
<path d="M43.5556 0C44.9995 0 46.3843 0.585316 47.4054 1.62718C48.4264 2.66905 49 4.08213 49 5.55556V44.4444C49 45.9179 48.4264 47.3309 47.4054 48.3728C46.3843 49.4147 44.9995 50 43.5556 50H5.44444C4.00049 50 2.61567 49.4147 1.59464 48.3728C0.573609 47.3309 0 45.9179 0 44.4444V5.55556C0 4.08213 0.573609 2.66905 1.59464 1.62718C2.61567 0.585316 4.00049 0 5.44444 0H43.5556ZM42.1944 43.0556V28.3333C42.1944 25.9316 41.2595 23.6283 39.5952 21.9301C37.9309 20.2318 35.6736 19.2778 33.32 19.2778C31.0061 19.2778 28.3111 20.7222 27.0044 22.8889V19.8056H19.4094V43.0556H27.0044V29.3611C27.0044 27.2222 28.6922 25.4722 30.7883 25.4722C31.7991 25.4722 32.7685 25.8819 33.4832 26.6113C34.1979 27.3406 34.5994 28.3297 34.5994 29.3611V43.0556H42.1944ZM10.5622 15.4444C11.7751 15.4444 12.9384 14.9528 13.7961 14.0776C14.6537 13.2024 15.1356 12.0155 15.1356 10.7778C15.1356 8.19444 13.0939 6.08333 10.5622 6.08333C9.34208 6.08333 8.17191 6.57792 7.30914 7.4583C6.44637 8.33868 5.96167 9.53273 5.96167 10.7778C5.96167 13.3611 8.03056 15.4444 10.5622 15.4444ZM14.3461 43.0556V19.8056H6.80556V43.0556H14.3461Z" fill="white" fill-opacity="0.9"/>
</svg>
