<svg width="80" height="63" viewBox="0 0 80 63" fill="none" xmlns="http://www.w3.org/2000/svg">
<g clip-path="url(#clip0_138_7)">
<path d="M60.3704 3.47082C58.5324 2.19635 56.4578 1.0137 54.1169 0C53.0519 2.63342 52.0128 5.63412 51.1252 8.98006C49.8827 13.6776 49.2318 17.9748 48.9064 21.6697C47.6121 21.1996 29.965 15.1504 14.5145 26.6096C-1.69038 38.6271 -0.00776467 58.4273 0.0957808 59.419C11.2602 61.5419 25.3054 63.2461 41.5103 62.9706C56.3876 62.7172 69.3381 60.8624 79.8221 58.6624C80.2733 50.9274 81.4234 18.0703 60.3704 3.47082ZM19.9987 44.2429C18.9226 47.9524 16.8554 50.6152 15.3798 50.1929C13.9043 49.7705 13.5826 46.4209 14.6624 42.715C15.7385 39.0054 17.8058 36.3426 19.2813 36.765C20.7568 37.1874 21.0785 40.537 19.9987 44.2429ZM35.5897 45.4549C34.8723 49.2489 33.0676 52.0954 31.5625 51.8126C30.0574 51.5298 29.414 48.2279 30.1314 44.4339C30.8488 40.6398 32.6534 37.7934 34.1586 38.0762C35.6637 38.359 36.3071 41.6609 35.5897 45.4549Z" fill="white"/>
<path d="M26.7184 15.9033C24.1631 10.2362 20.0176 6.07117 14.6517 1.44708C12.3182 5.45781 8.96039 15.2202 8.70892 24.3912C11.5971 21.9011 14.9623 19.881 18.8268 18.2796C20.968 17.3945 23.6639 16.5424 26.7184 15.9033Z" fill="white"/>
</g>
<defs>
<clipPath id="clip0_138_7">
<rect width="80" height="63" fill="white"/>
</clipPath>
</defs>
</svg>
