<svg width="58" height="58" viewBox="0 0 58 58" fill="none" xmlns="http://www.w3.org/2000/svg">
<path d="M29 0C32.8083 0 36.5794 0.750107 40.0978 2.20749C43.6163 3.66488 46.8132 5.801 49.5061 8.4939C52.199 11.1868 54.3351 14.3837 55.7925 17.9022C57.2499 21.4206 58 25.1917 58 29C58 36.6913 54.9447 44.0675 49.5061 49.5061C44.0675 54.9447 36.6913 58 29 58C15.66 58 4.495 49.068 1.044 36.917L12.151 41.499C12.5316 43.3567 13.5415 45.0261 15.0103 46.2254C16.4791 47.4248 18.3168 48.0805 20.213 48.082C24.737 48.082 28.42 44.399 28.42 39.875V39.498L38.28 32.451H38.512C44.544 32.451 49.445 27.55 49.445 21.518C49.445 15.486 44.544 10.585 38.512 10.585C32.48 10.585 27.55 15.486 27.55 21.518V21.663L20.677 31.697L20.213 31.668C18.502 31.668 16.907 32.19 15.602 33.089L0 26.68C1.247 11.745 13.717 0 29 0ZM18.212 43.993C20.532 44.95 23.2 43.877 24.157 41.557C25.114 39.237 24.012 36.598 21.75 35.641L18.038 34.104C19.459 33.582 21.054 33.553 22.562 34.191C24.099 34.8 25.288 35.989 25.897 37.526C26.535 39.034 26.535 40.716 25.897 42.224C24.65 45.356 20.967 46.864 17.835 45.559C16.385 44.95 15.283 43.848 14.674 42.543L18.212 43.993ZM45.82 21.518C45.82 25.549 42.543 28.826 38.512 28.826C36.5788 28.8183 34.7275 28.045 33.3632 26.6753C31.999 25.3056 31.233 23.4512 31.233 21.518C31.2292 20.561 31.4148 19.6128 31.7793 18.7279C32.1437 17.8431 32.6797 17.0391 33.3564 16.3624C34.0331 15.6857 34.8371 15.1497 35.7219 14.7853C36.6068 14.4208 37.555 14.2352 38.512 14.239C40.4452 14.239 42.2996 15.005 43.6693 16.3692C45.039 17.7335 45.8123 19.5848 45.82 21.518ZM33.06 21.518C33.06 24.534 35.496 26.999 38.541 26.999C41.557 26.999 43.993 24.534 43.993 21.518C43.993 18.502 41.557 16.037 38.541 16.037C35.496 16.037 33.06 18.502 33.06 21.518Z" fill="white" fill-opacity="0.9"/>
</svg>
