<?xml version="1.0" encoding="UTF-8"?>
<svg id="Isolation_Mode" data-name="Isolation Mode" xmlns="http://www.w3.org/2000/svg" viewBox="0 0 700.9 816.07">
  <defs>
    <style>
      .cls-1 {
        fill: #fff;
      }
    </style>
  </defs>
  <path class="cls-1" d="M700.58,1.52c0-.82-.68-1.49-1.52-1.49l-550.75-.03c-1.52,0-2.96.6-4.03,1.66L1.49,144.43c-.99,1.01-1.49,2.23-1.49,3.65v521.09c0,1.22.99,2.22,2.22,2.22l170.29.06c1.45,0,2.63,1.19,2.63,2.66l.03,140.31c0,1.91.69,2.16,2.07.76l140.52-140.58c2.06-2.06,4.84-3.21,7.74-3.21l108.73.03c2.26,0,4.44-.89,6.04-2.48,83.44-83.52,167.12-167.2,251.03-251.03,6.16-6.16,9.6-8.73,9.6-16.52-.27-133.59-.38-266.88-.32-399.87ZM641.94,379.44l-116.55,116.52c-.2.19-.46.3-.73.29l-115.88-.03c-.27,0-.54.1-.73.29l-99.77,99.8c-.2.21-.47.3-.73.3,0,0,0,0-.01,0-.14,0-.23-.1-.35-.15-.12-.05-.25-.05-.35-.14,0,0,0,0,0-.01-.19-.19-.31-.45-.3-.73v-98.31c0-.56-.46-1.02-1.02-1.02h-129.31c-.28,0-.54-.11-.72-.3-.18-.19-.3-.44-.3-.72V59.43h0c0-.28.11-.54.3-.72.19-.19.44-.3.72-.3h464.99c.28,0,.54.11.72.3.18.19.3.44.3.72h0s.03,319.28.03,319.28c0,.27-.1.53-.29.73Z"/>
  <rect class="cls-1" x="335.71" y="160.57" width="58.38" height="175.14" rx="2.1" ry="2.1"/>
  <rect class="cls-1" x="496.25" y="160.57" width="58.38" height="175.14" rx="1.78" ry="1.78"/>
</svg>