<svg width="66" height="45" viewBox="0 0 66 45" fill="none" xmlns="http://www.w3.org/2000/svg">
<path d="M26.4 32.1429L43.527 22.5L26.4 12.8571V32.1429ZM64.548 6.975C64.977 8.48571 65.274 10.5107 65.472 13.0821C65.703 15.6536 65.802 17.8714 65.802 19.8L66 22.5C66 29.5393 65.472 34.7143 64.548 38.025C63.723 40.9179 61.809 42.7821 58.839 43.5857C57.288 44.0036 54.45 44.2929 50.094 44.4857C45.804 44.7107 41.877 44.8071 38.247 44.8071L33 45C19.173 45 10.56 44.4857 7.161 43.5857C4.191 42.7821 2.277 40.9179 1.452 38.025C1.023 36.5143 0.726 34.4893 0.528 31.9179C0.297 29.3464 0.198 27.1286 0.198 25.2L0 22.5C0 15.4607 0.528 10.2857 1.452 6.975C2.277 4.08214 4.191 2.21786 7.161 1.41429C8.712 0.996429 11.55 0.707142 15.906 0.514285C20.196 0.289285 24.123 0.192857 27.753 0.192857L33 0C46.827 0 55.44 0.514286 58.839 1.41429C61.809 2.21786 63.723 4.08214 64.548 6.975Z" fill="white" fill-opacity="0.9"/>
</svg>
